<svg width="276" height="100" viewBox="0 0 276 100" fill="none" xmlns="http://www.w3.org/2000/svg">
<path d="M128.968 32.7H121.818L120.454 36H116.802L123.666 20.6H127.186L134.072 36H130.332L128.968 32.7ZM127.846 29.994L125.404 24.098L122.962 29.994H127.846ZM142.776 20.6C144.14 20.6 145.321 20.8273 146.318 21.282C147.33 21.7367 148.107 22.382 148.65 23.218C149.193 24.054 149.464 25.044 149.464 26.188C149.464 27.3173 149.193 28.3073 148.65 29.158C148.107 29.994 147.33 30.6393 146.318 31.094C145.321 31.534 144.14 31.754 142.776 31.754H139.674V36H136.11V20.6H142.776ZM142.578 28.85C143.649 28.85 144.463 28.6227 145.02 28.168C145.577 27.6987 145.856 27.0387 145.856 26.188C145.856 25.3227 145.577 24.6627 145.02 24.208C144.463 23.7387 143.649 23.504 142.578 23.504H139.674V28.85H142.578ZM164.372 33.14V36H152.448V20.6H164.086V23.46H155.99V26.804H163.14V29.576H155.99V33.14H164.372ZM177.2 36L173.482 30.654L169.83 36H165.738L171.436 28.168L166.024 20.6H170.072L173.614 25.594L177.09 20.6H180.94L175.572 28.036L181.314 36H177.2ZM193.503 23.504H188.575V20.6H201.995V23.504H197.067V36H193.503V23.504ZM213.722 32.7H206.572L205.208 36H201.556L208.42 20.6H211.94L218.826 36H215.086L213.722 32.7ZM212.6 29.994L210.158 24.098L207.716 29.994H212.6ZM221.146 19.5C221.762 19.5 222.268 19.698 222.664 20.094C223.06 20.4753 223.258 20.9813 223.258 21.612C223.258 21.9053 223.222 22.1987 223.148 22.492C223.075 22.7853 222.921 23.2253 222.686 23.812L221.41 26.98H219.232L220.178 23.504C219.812 23.3427 219.526 23.1007 219.32 22.778C219.115 22.4553 219.012 22.0667 219.012 21.612C219.012 20.9813 219.21 20.4753 219.606 20.094C220.017 19.698 220.53 19.5 221.146 19.5ZM226.266 20.6H229.83V33.096H237.552V36H226.266V20.6ZM239.984 20.6H243.548V36H239.984V20.6ZM261.656 36L261.634 26.76L257.102 34.372H255.496L250.986 26.958V36H247.642V20.6H250.59L256.354 30.17L262.03 20.6H264.956L265 36H261.656Z" fill="white"/>
<path d="M124.223 57.096H120.779V56.2H128.703V57.096H125.259V66H124.223V57.096ZM132.594 58.58C133.555 58.58 134.292 58.8227 134.806 59.308C135.319 59.784 135.576 60.4933 135.576 61.436V66H134.624V64.852C134.4 65.2347 134.068 65.5333 133.63 65.748C133.2 65.9627 132.687 66.07 132.09 66.07C131.268 66.07 130.615 65.874 130.13 65.482C129.644 65.09 129.402 64.572 129.402 63.928C129.402 63.3027 129.626 62.7987 130.074 62.416C130.531 62.0333 131.254 61.842 132.244 61.842H134.582V61.394C134.582 60.7593 134.404 60.2787 134.05 59.952C133.695 59.616 133.177 59.448 132.496 59.448C132.029 59.448 131.581 59.5273 131.152 59.686C130.722 59.8353 130.354 60.0453 130.046 60.316L129.598 59.574C129.971 59.2567 130.419 59.014 130.942 58.846C131.464 58.6687 132.015 58.58 132.594 58.58ZM132.244 65.286C132.804 65.286 133.284 65.16 133.686 64.908C134.087 64.6467 134.386 64.2733 134.582 63.788V62.584H132.272C131.012 62.584 130.382 63.0227 130.382 63.9C130.382 64.3293 130.545 64.67 130.872 64.922C131.198 65.1647 131.656 65.286 132.244 65.286ZM138.556 55.612H139.55V66H138.556V55.612ZM145.171 58.58C146.133 58.58 146.87 58.8227 147.383 59.308C147.897 59.784 148.153 60.4933 148.153 61.436V66H147.201V64.852C146.977 65.2347 146.646 65.5333 146.207 65.748C145.778 65.9627 145.265 66.07 144.667 66.07C143.846 66.07 143.193 65.874 142.707 65.482C142.222 65.09 141.979 64.572 141.979 63.928C141.979 63.3027 142.203 62.7987 142.651 62.416C143.109 62.0333 143.832 61.842 144.821 61.842H147.159V61.394C147.159 60.7593 146.982 60.2787 146.627 59.952C146.273 59.616 145.755 59.448 145.073 59.448C144.607 59.448 144.159 59.5273 143.729 59.686C143.3 59.8353 142.931 60.0453 142.623 60.316L142.175 59.574C142.549 59.2567 142.997 59.014 143.519 58.846C144.042 58.6687 144.593 58.58 145.171 58.58ZM144.821 65.286C145.381 65.286 145.862 65.16 146.263 64.908C146.665 64.6467 146.963 64.2733 147.159 63.788V62.584H144.849C143.589 62.584 142.959 63.0227 142.959 63.9C142.959 64.3293 143.123 64.67 143.449 64.922C143.776 65.1647 144.233 65.286 144.821 65.286ZM154.927 58.58C155.618 58.58 156.243 58.7387 156.803 59.056C157.363 59.364 157.802 59.8027 158.119 60.372C158.437 60.9413 158.595 61.59 158.595 62.318C158.595 63.046 158.437 63.6947 158.119 64.264C157.802 64.8333 157.363 65.2767 156.803 65.594C156.243 65.9113 155.618 66.07 154.927 66.07C154.311 66.07 153.756 65.9393 153.261 65.678C152.776 65.4167 152.384 65.0387 152.085 64.544V66H151.133V55.612H152.127V60.036C152.435 59.56 152.827 59.2007 153.303 58.958C153.789 58.706 154.33 58.58 154.927 58.58ZM154.857 65.188C155.371 65.188 155.837 65.0713 156.257 64.838C156.677 64.5953 157.004 64.2547 157.237 63.816C157.48 63.3773 157.601 62.878 157.601 62.318C157.601 61.758 157.48 61.2587 157.237 60.82C157.004 60.3813 156.677 60.0453 156.257 59.812C155.837 59.5693 155.371 59.448 154.857 59.448C154.335 59.448 153.863 59.5693 153.443 59.812C153.033 60.0453 152.706 60.3813 152.463 60.82C152.23 61.2587 152.113 61.758 152.113 62.318C152.113 62.878 152.23 63.3773 152.463 63.816C152.706 64.2547 153.033 64.5953 153.443 64.838C153.863 65.0713 154.335 65.188 154.857 65.188ZM163.436 58.58C164.398 58.58 165.135 58.8227 165.648 59.308C166.162 59.784 166.418 60.4933 166.418 61.436V66H165.466V64.852C165.242 65.2347 164.911 65.5333 164.472 65.748C164.043 65.9627 163.53 66.07 162.932 66.07C162.111 66.07 161.458 65.874 160.972 65.482C160.487 65.09 160.244 64.572 160.244 63.928C160.244 63.3027 160.468 62.7987 160.916 62.416C161.374 62.0333 162.097 61.842 163.086 61.842H165.424V61.394C165.424 60.7593 165.247 60.2787 164.892 59.952C164.538 59.616 164.02 59.448 163.338 59.448C162.872 59.448 162.424 59.5273 161.994 59.686C161.565 59.8353 161.196 60.0453 160.888 60.316L160.44 59.574C160.814 59.2567 161.262 59.014 161.784 58.846C162.307 58.6687 162.858 58.58 163.436 58.58ZM163.086 65.286C163.646 65.286 164.127 65.16 164.528 64.908C164.93 64.6467 165.228 64.2733 165.424 63.788V62.584H163.114C161.854 62.584 161.224 63.0227 161.224 63.9C161.224 64.3293 161.388 64.67 161.714 64.922C162.041 65.1647 162.498 65.286 163.086 65.286ZM177.136 58.58C177.827 58.58 178.452 58.7387 179.012 59.056C179.572 59.364 180.011 59.8027 180.328 60.372C180.646 60.9413 180.804 61.59 180.804 62.318C180.804 63.046 180.646 63.6947 180.328 64.264C180.011 64.8333 179.572 65.2767 179.012 65.594C178.452 65.9113 177.827 66.07 177.136 66.07C176.52 66.07 175.965 65.9393 175.47 65.678C174.985 65.4167 174.593 65.0387 174.294 64.544V66H173.342V55.612H174.336V60.036C174.644 59.56 175.036 59.2007 175.512 58.958C175.998 58.706 176.539 58.58 177.136 58.58ZM177.066 65.188C177.58 65.188 178.046 65.0713 178.466 64.838C178.886 64.5953 179.213 64.2547 179.446 63.816C179.689 63.3773 179.81 62.878 179.81 62.318C179.81 61.758 179.689 61.2587 179.446 60.82C179.213 60.3813 178.886 60.0453 178.466 59.812C178.046 59.5693 177.58 59.448 177.066 59.448C176.544 59.448 176.072 59.5693 175.652 59.812C175.242 60.0453 174.915 60.3813 174.672 60.82C174.439 61.2587 174.322 61.758 174.322 62.318C174.322 62.878 174.439 63.3773 174.672 63.816C174.915 64.2547 175.242 64.5953 175.652 64.838C176.072 65.0713 176.544 65.188 177.066 65.188ZM186.121 66.07C185.411 66.07 184.772 65.9113 184.203 65.594C183.633 65.2673 183.185 64.8193 182.859 64.25C182.532 63.6807 182.369 63.0367 182.369 62.318C182.369 61.5993 182.532 60.9553 182.859 60.386C183.185 59.8167 183.633 59.3733 184.203 59.056C184.772 58.7387 185.411 58.58 186.121 58.58C186.83 58.58 187.469 58.7387 188.039 59.056C188.608 59.3733 189.051 59.8167 189.369 60.386C189.695 60.9553 189.859 61.5993 189.859 62.318C189.859 63.0367 189.695 63.6807 189.369 64.25C189.051 64.8193 188.608 65.2673 188.039 65.594C187.469 65.9113 186.83 66.07 186.121 66.07ZM186.121 65.188C186.643 65.188 187.11 65.0713 187.521 64.838C187.941 64.5953 188.267 64.2547 188.501 63.816C188.734 63.3773 188.851 62.878 188.851 62.318C188.851 61.758 188.734 61.2587 188.501 60.82C188.267 60.3813 187.941 60.0453 187.521 59.812C187.11 59.5693 186.643 59.448 186.121 59.448C185.598 59.448 185.127 59.5693 184.707 59.812C184.296 60.0453 183.969 60.3813 183.727 60.82C183.493 61.2587 183.377 61.758 183.377 62.318C183.377 62.878 183.493 63.3773 183.727 63.816C183.969 64.2547 184.296 64.5953 184.707 64.838C185.127 65.0713 185.598 65.188 186.121 65.188ZM192.312 57.628C192.471 57.6747 192.592 57.7633 192.676 57.894C192.77 58.0153 192.816 58.1647 192.816 58.342C192.816 58.566 192.746 58.748 192.606 58.888C192.466 59.028 192.294 59.098 192.088 59.098C191.864 59.098 191.682 59.028 191.542 58.888C191.412 58.7387 191.346 58.5567 191.346 58.342C191.346 58.23 191.356 58.1227 191.374 58.02C191.402 57.908 191.454 57.7493 191.528 57.544L192.116 55.612H192.788L192.312 57.628ZM195.237 55.612H196.231V66H195.237V55.612ZM199.277 58.636H200.271V66H199.277V58.636ZM199.781 57.026C199.575 57.026 199.403 56.956 199.263 56.816C199.123 56.676 199.053 56.508 199.053 56.312C199.053 56.1253 199.123 55.962 199.263 55.822C199.403 55.682 199.575 55.612 199.781 55.612C199.986 55.612 200.159 55.682 200.299 55.822C200.439 55.9527 200.509 56.1113 200.509 56.298C200.509 56.5033 200.439 56.676 200.299 56.816C200.159 56.956 199.986 57.026 199.781 57.026ZM205.291 66.07C204.693 66.07 204.119 65.986 203.569 65.818C203.027 65.6407 202.603 65.4213 202.295 65.16L202.743 64.376C203.051 64.6187 203.438 64.8193 203.905 64.978C204.371 65.1273 204.857 65.202 205.361 65.202C206.033 65.202 206.527 65.0993 206.845 64.894C207.171 64.6793 207.335 64.3807 207.335 63.998C207.335 63.7273 207.246 63.5173 207.069 63.368C206.891 63.2093 206.667 63.0927 206.397 63.018C206.126 62.934 205.767 62.8547 205.319 62.78C204.721 62.668 204.241 62.556 203.877 62.444C203.513 62.3227 203.2 62.122 202.939 61.842C202.687 61.562 202.561 61.1747 202.561 60.68C202.561 60.064 202.817 59.56 203.331 59.168C203.844 58.776 204.558 58.58 205.473 58.58C205.949 58.58 206.425 58.6453 206.901 58.776C207.377 58.8973 207.769 59.0607 208.077 59.266L207.643 60.064C207.036 59.644 206.313 59.434 205.473 59.434C204.838 59.434 204.357 59.546 204.031 59.77C203.713 59.994 203.555 60.288 203.555 60.652C203.555 60.932 203.643 61.156 203.821 61.324C204.007 61.492 204.236 61.618 204.507 61.702C204.777 61.7767 205.151 61.856 205.627 61.94C206.215 62.052 206.686 62.164 207.041 62.276C207.395 62.388 207.699 62.5793 207.951 62.85C208.203 63.1207 208.329 63.494 208.329 63.97C208.329 64.614 208.058 65.1273 207.517 65.51C206.985 65.8833 206.243 66.07 205.291 66.07ZM214.198 58.58C215.122 58.58 215.855 58.8507 216.396 59.392C216.947 59.924 217.222 60.7033 217.222 61.73V66H216.228V61.828C216.228 61.0627 216.037 60.4793 215.654 60.078C215.272 59.6767 214.726 59.476 214.016 59.476C213.223 59.476 212.593 59.714 212.126 60.19C211.669 60.6567 211.44 61.3053 211.44 62.136V66H210.446V55.612H211.44V59.924C211.711 59.4947 212.084 59.1633 212.56 58.93C213.036 58.6967 213.582 58.58 214.198 58.58ZM220.201 58.636H221.195V66H220.201V58.636ZM220.705 57.026C220.499 57.026 220.327 56.956 220.187 56.816C220.047 56.676 219.977 56.508 219.977 56.312C219.977 56.1253 220.047 55.962 220.187 55.822C220.327 55.682 220.499 55.612 220.705 55.612C220.91 55.612 221.083 55.682 221.223 55.822C221.363 55.9527 221.433 56.1113 221.433 56.298C221.433 56.5033 221.363 56.676 221.223 56.816C221.083 56.956 220.91 57.026 220.705 57.026ZM227.993 58.58C228.917 58.58 229.649 58.8507 230.191 59.392C230.741 59.924 231.017 60.7033 231.017 61.73V66H230.023V61.828C230.023 61.0627 229.831 60.4793 229.449 60.078C229.066 59.6767 228.52 59.476 227.811 59.476C227.017 59.476 226.387 59.714 225.921 60.19C225.463 60.6567 225.235 61.3053 225.235 62.136V66H224.241V58.636H225.193V59.994C225.463 59.546 225.837 59.2007 226.313 58.958C226.798 58.706 227.358 58.58 227.993 58.58ZM240.841 58.636V65.104C240.841 66.3547 240.533 67.2787 239.917 67.876C239.31 68.4827 238.391 68.786 237.159 68.786C236.477 68.786 235.829 68.6833 235.213 68.478C234.606 68.282 234.111 68.0067 233.729 67.652L234.233 66.896C234.587 67.2133 235.017 67.4607 235.521 67.638C236.034 67.8153 236.571 67.904 237.131 67.904C238.064 67.904 238.75 67.6847 239.189 67.246C239.627 66.8167 239.847 66.1447 239.847 65.23V64.292C239.539 64.7587 239.133 65.1133 238.629 65.356C238.134 65.5987 237.583 65.72 236.977 65.72C236.286 65.72 235.656 65.5707 235.087 65.272C234.527 64.964 234.083 64.5393 233.757 63.998C233.439 63.4473 233.281 62.8267 233.281 62.136C233.281 61.4453 233.439 60.8293 233.757 60.288C234.083 59.7467 234.527 59.3267 235.087 59.028C235.647 58.7293 236.277 58.58 236.977 58.58C237.602 58.58 238.167 58.706 238.671 58.958C239.175 59.21 239.581 59.574 239.889 60.05V58.636H240.841ZM237.075 64.838C237.607 64.838 238.087 64.726 238.517 64.502C238.946 64.2687 239.277 63.9467 239.511 63.536C239.753 63.1253 239.875 62.6587 239.875 62.136C239.875 61.6133 239.753 61.1513 239.511 60.75C239.277 60.3393 238.946 60.022 238.517 59.798C238.097 59.5647 237.616 59.448 237.075 59.448C236.543 59.448 236.062 59.56 235.633 59.784C235.213 60.008 234.881 60.3253 234.639 60.736C234.405 61.1467 234.289 61.6133 234.289 62.136C234.289 62.6587 234.405 63.1253 234.639 63.536C234.881 63.9467 235.213 64.2687 235.633 64.502C236.062 64.726 236.543 64.838 237.075 64.838ZM243.9 58.636H244.894V66H243.9V58.636ZM244.404 57.026C244.199 57.026 244.026 56.956 243.886 56.816C243.746 56.676 243.676 56.508 243.676 56.312C243.676 56.1253 243.746 55.962 243.886 55.822C244.026 55.682 244.199 55.612 244.404 55.612C244.61 55.612 244.782 55.682 244.922 55.822C245.062 55.9527 245.132 56.1113 245.132 56.298C245.132 56.5033 245.062 56.676 244.922 56.816C244.782 56.956 244.61 57.026 244.404 57.026ZM253.134 65.174V66H247.142V65.342L251.776 59.476H247.226V58.636H253.05V59.294L248.416 65.174H253.134ZM262.065 58.636V65.104C262.065 66.3547 261.757 67.2787 261.141 67.876C260.535 68.4827 259.615 68.786 258.383 68.786C257.702 68.786 257.053 68.6833 256.437 68.478C255.831 68.282 255.336 68.0067 254.953 67.652L255.457 66.896C255.812 67.2133 256.241 67.4607 256.745 67.638C257.259 67.8153 257.795 67.904 258.355 67.904C259.289 67.904 259.975 67.6847 260.413 67.246C260.852 66.8167 261.071 66.1447 261.071 65.23V64.292C260.763 64.7587 260.357 65.1133 259.853 65.356C259.359 65.5987 258.808 65.72 258.201 65.72C257.511 65.72 256.881 65.5707 256.311 65.272C255.751 64.964 255.308 64.5393 254.981 63.998C254.664 63.4473 254.505 62.8267 254.505 62.136C254.505 61.4453 254.664 60.8293 254.981 60.288C255.308 59.7467 255.751 59.3267 256.311 59.028C256.871 58.7293 257.501 58.58 258.201 58.58C258.827 58.58 259.391 58.706 259.895 58.958C260.399 59.21 260.805 59.574 261.113 60.05V58.636H262.065ZM258.299 64.838C258.831 64.838 259.312 64.726 259.741 64.502C260.171 64.2687 260.502 63.9467 260.735 63.536C260.978 63.1253 261.099 62.6587 261.099 62.136C261.099 61.6133 260.978 61.1513 260.735 60.75C260.502 60.3393 260.171 60.022 259.741 59.798C259.321 59.5647 258.841 59.448 258.299 59.448C257.767 59.448 257.287 59.56 256.857 59.784C256.437 60.008 256.106 60.3253 255.863 60.736C255.63 61.1467 255.513 61.6133 255.513 62.136C255.513 62.6587 255.63 63.1253 255.863 63.536C256.106 63.9467 256.437 64.2687 256.857 64.502C257.287 64.726 257.767 64.838 258.299 64.838ZM267.701 58.58C268.662 58.58 269.4 58.8227 269.913 59.308C270.426 59.784 270.683 60.4933 270.683 61.436V66H269.731V64.852C269.507 65.2347 269.176 65.5333 268.737 65.748C268.308 65.9627 267.794 66.07 267.197 66.07C266.376 66.07 265.722 65.874 265.237 65.482C264.752 65.09 264.509 64.572 264.509 63.928C264.509 63.3027 264.733 62.7987 265.181 62.416C265.638 62.0333 266.362 61.842 267.351 61.842H269.689V61.394C269.689 60.7593 269.512 60.2787 269.157 59.952C268.802 59.616 268.284 59.448 267.603 59.448C267.136 59.448 266.688 59.5273 266.259 59.686C265.83 59.8353 265.461 60.0453 265.153 60.316L264.705 59.574C265.078 59.2567 265.526 59.014 266.049 58.846C266.572 58.6687 267.122 58.58 267.701 58.58ZM267.351 65.286C267.911 65.286 268.392 65.16 268.793 64.908C269.194 64.6467 269.493 64.2733 269.689 63.788V62.584H267.379C266.119 62.584 265.489 63.0227 265.489 63.9C265.489 64.3293 265.652 64.67 265.979 64.922C266.306 65.1647 266.763 65.286 267.351 65.286ZM135.618 75.58C136.58 75.58 137.317 75.8227 137.83 76.308C138.344 76.784 138.6 77.4933 138.6 78.436V83H137.648V81.852C137.424 82.2347 137.093 82.5333 136.654 82.748C136.225 82.9627 135.712 83.07 135.114 83.07C134.293 83.07 133.64 82.874 133.154 82.482C132.669 82.09 132.426 81.572 132.426 80.928C132.426 80.3027 132.65 79.7987 133.098 79.416C133.556 79.0333 134.279 78.842 135.268 78.842H137.606V78.394C137.606 77.7593 137.429 77.2787 137.074 76.952C136.72 76.616 136.202 76.448 135.52 76.448C135.054 76.448 134.606 76.5273 134.176 76.686C133.747 76.8353 133.378 77.0453 133.07 77.316L132.622 76.574C132.996 76.2567 133.444 76.014 133.966 75.846C134.489 75.6687 135.04 75.58 135.618 75.58ZM135.268 82.286C135.828 82.286 136.309 82.16 136.71 81.908C137.112 81.6467 137.41 81.2733 137.606 80.788V79.584H135.296C134.036 79.584 133.406 80.0227 133.406 80.9C133.406 81.3293 133.57 81.67 133.896 81.922C134.223 82.1647 134.68 82.286 135.268 82.286ZM141.58 72.612H142.574V83H141.58V72.612ZM149.414 75.58C150.105 75.58 150.73 75.7387 151.29 76.056C151.85 76.364 152.289 76.8027 152.606 77.372C152.923 77.9413 153.082 78.59 153.082 79.318C153.082 80.046 152.923 80.6947 152.606 81.264C152.289 81.8333 151.85 82.2767 151.29 82.594C150.73 82.9113 150.105 83.07 149.414 83.07C148.798 83.07 148.243 82.9393 147.748 82.678C147.263 82.4167 146.871 82.0387 146.572 81.544V83H145.62V72.612H146.614V77.036C146.922 76.56 147.314 76.2007 147.79 75.958C148.275 75.706 148.817 75.58 149.414 75.58ZM149.344 82.188C149.857 82.188 150.324 82.0713 150.744 81.838C151.164 81.5953 151.491 81.2547 151.724 80.816C151.967 80.3773 152.088 79.878 152.088 79.318C152.088 78.758 151.967 78.2587 151.724 77.82C151.491 77.3813 151.164 77.0453 150.744 76.812C150.324 76.5693 149.857 76.448 149.344 76.448C148.821 76.448 148.35 76.5693 147.93 76.812C147.519 77.0453 147.193 77.3813 146.95 77.82C146.717 78.2587 146.6 78.758 146.6 79.318C146.6 79.878 146.717 80.3773 146.95 80.816C147.193 81.2547 147.519 81.5953 147.93 81.838C148.35 82.0713 148.821 82.188 149.344 82.188ZM157.923 75.58C158.884 75.58 159.622 75.8227 160.135 76.308C160.648 76.784 160.905 77.4933 160.905 78.436V83H159.953V81.852C159.729 82.2347 159.398 82.5333 158.959 82.748C158.53 82.9627 158.016 83.07 157.419 83.07C156.598 83.07 155.944 82.874 155.459 82.482C154.974 82.09 154.731 81.572 154.731 80.928C154.731 80.3027 154.955 79.7987 155.403 79.416C155.86 79.0333 156.584 78.842 157.573 78.842H159.911V78.394C159.911 77.7593 159.734 77.2787 159.379 76.952C159.024 76.616 158.506 76.448 157.825 76.448C157.358 76.448 156.91 76.5273 156.481 76.686C156.052 76.8353 155.683 77.0453 155.375 77.316L154.927 76.574C155.3 76.2567 155.748 76.014 156.271 75.846C156.794 75.6687 157.344 75.58 157.923 75.58ZM157.573 82.286C158.133 82.286 158.614 82.16 159.015 81.908C159.416 81.6467 159.715 81.2733 159.911 80.788V79.584H157.601C156.341 79.584 155.711 80.0227 155.711 80.9C155.711 81.3293 155.874 81.67 156.201 81.922C156.528 82.1647 156.985 82.286 157.573 82.286ZM167.763 82.552C167.576 82.72 167.343 82.8507 167.063 82.944C166.792 83.028 166.508 83.07 166.209 83.07C165.518 83.07 164.986 82.8833 164.613 82.51C164.24 82.1367 164.053 81.6093 164.053 80.928V76.476H162.737V75.636H164.053V74.026H165.047V75.636H167.287V76.476H165.047V80.872C165.047 81.3107 165.154 81.6467 165.369 81.88C165.593 82.104 165.91 82.216 166.321 82.216C166.526 82.216 166.722 82.1833 166.909 82.118C167.105 82.0527 167.273 81.9593 167.413 81.838L167.763 82.552ZM173.539 82.552C173.352 82.72 173.119 82.8507 172.839 82.944C172.568 83.028 172.284 83.07 171.985 83.07C171.294 83.07 170.762 82.8833 170.389 82.51C170.016 82.1367 169.829 81.6093 169.829 80.928V76.476H168.513V75.636H169.829V74.026H170.823V75.636H173.063V76.476H170.823V80.872C170.823 81.3107 170.93 81.6467 171.145 81.88C171.369 82.104 171.686 82.216 172.097 82.216C172.302 82.216 172.498 82.1833 172.685 82.118C172.881 82.0527 173.049 81.9593 173.189 81.838L173.539 82.552ZM178.205 75.58C179.166 75.58 179.903 75.8227 180.417 76.308C180.93 76.784 181.187 77.4933 181.187 78.436V83H180.235V81.852C180.011 82.2347 179.679 82.5333 179.241 82.748C178.811 82.9627 178.298 83.07 177.701 83.07C176.879 83.07 176.226 82.874 175.741 82.482C175.255 82.09 175.013 81.572 175.013 80.928C175.013 80.3027 175.237 79.7987 175.685 79.416C176.142 79.0333 176.865 78.842 177.855 78.842H180.193V78.394C180.193 77.7593 180.015 77.2787 179.661 76.952C179.306 76.616 178.788 76.448 178.107 76.448C177.64 76.448 177.192 76.5273 176.763 76.686C176.333 76.8353 175.965 77.0453 175.657 77.316L175.209 76.574C175.582 76.2567 176.03 76.014 176.553 75.846C177.075 75.6687 177.626 75.58 178.205 75.58ZM177.855 82.286C178.415 82.286 178.895 82.16 179.297 81.908C179.698 81.6467 179.997 81.2733 180.193 80.788V79.584H177.883C176.623 79.584 175.993 80.0227 175.993 80.9C175.993 81.3293 176.156 81.67 176.483 81.922C176.809 82.1647 177.267 82.286 177.855 82.286ZM188.11 75.636H189.104V83H188.11V75.636ZM188.614 74.026C188.409 74.026 188.236 73.956 188.096 73.816C187.956 73.676 187.886 73.508 187.886 73.312C187.886 73.1253 187.956 72.962 188.096 72.822C188.236 72.682 188.409 72.612 188.614 72.612C188.82 72.612 188.992 72.682 189.132 72.822C189.272 72.9527 189.342 73.1113 189.342 73.298C189.342 73.5033 189.272 73.676 189.132 73.816C188.992 73.956 188.82 74.026 188.614 74.026ZM194.124 83.07C193.527 83.07 192.953 82.986 192.402 82.818C191.861 82.6407 191.436 82.4213 191.128 82.16L191.576 81.376C191.884 81.6187 192.272 81.8193 192.738 81.978C193.205 82.1273 193.69 82.202 194.194 82.202C194.866 82.202 195.361 82.0993 195.678 81.894C196.005 81.6793 196.168 81.3807 196.168 80.998C196.168 80.7273 196.08 80.5173 195.902 80.368C195.725 80.2093 195.501 80.0927 195.23 80.018C194.96 79.934 194.6 79.8547 194.152 79.78C193.555 79.668 193.074 79.556 192.71 79.444C192.346 79.3227 192.034 79.122 191.772 78.842C191.52 78.562 191.394 78.1747 191.394 77.68C191.394 77.064 191.651 76.56 192.164 76.168C192.678 75.776 193.392 75.58 194.306 75.58C194.782 75.58 195.258 75.6453 195.734 75.776C196.21 75.8973 196.602 76.0607 196.91 76.266L196.476 77.064C195.87 76.644 195.146 76.434 194.306 76.434C193.672 76.434 193.191 76.546 192.864 76.77C192.547 76.994 192.388 77.288 192.388 77.652C192.388 77.932 192.477 78.156 192.654 78.324C192.841 78.492 193.07 78.618 193.34 78.702C193.611 78.7767 193.984 78.856 194.46 78.94C195.048 79.052 195.52 79.164 195.874 79.276C196.229 79.388 196.532 79.5793 196.784 79.85C197.036 80.1207 197.162 80.494 197.162 80.97C197.162 81.614 196.892 82.1273 196.35 82.51C195.818 82.8833 195.076 83.07 194.124 83.07ZM203.032 75.58C203.956 75.58 204.688 75.8507 205.23 76.392C205.78 76.924 206.056 77.7033 206.056 78.73V83H205.062V78.828C205.062 78.0627 204.87 77.4793 204.488 77.078C204.105 76.6767 203.559 76.476 202.85 76.476C202.056 76.476 201.426 76.714 200.96 77.19C200.502 77.6567 200.274 78.3053 200.274 79.136V83H199.28V72.612H200.274V76.924C200.544 76.4947 200.918 76.1633 201.394 75.93C201.87 75.6967 202.416 75.58 203.032 75.58ZM212.072 83.07C211.362 83.07 210.723 82.9113 210.154 82.594C209.584 82.2673 209.136 81.8193 208.81 81.25C208.483 80.6807 208.32 80.0367 208.32 79.318C208.32 78.5993 208.483 77.9553 208.81 77.386C209.136 76.8167 209.584 76.3733 210.154 76.056C210.723 75.7387 211.362 75.58 212.072 75.58C212.781 75.58 213.42 75.7387 213.99 76.056C214.559 76.3733 215.002 76.8167 215.32 77.386C215.646 77.9553 215.81 78.5993 215.81 79.318C215.81 80.0367 215.646 80.6807 215.32 81.25C215.002 81.8193 214.559 82.2673 213.99 82.594C213.42 82.9113 212.781 83.07 212.072 83.07ZM212.072 82.188C212.594 82.188 213.061 82.0713 213.472 81.838C213.892 81.5953 214.218 81.2547 214.452 80.816C214.685 80.3773 214.802 79.878 214.802 79.318C214.802 78.758 214.685 78.2587 214.452 77.82C214.218 77.3813 213.892 77.0453 213.472 76.812C213.061 76.5693 212.594 76.448 212.072 76.448C211.549 76.448 211.078 76.5693 210.658 76.812C210.247 77.0453 209.92 77.3813 209.678 77.82C209.444 78.2587 209.328 78.758 209.328 79.318C209.328 79.878 209.444 80.3773 209.678 80.816C209.92 81.2547 210.247 81.5953 210.658 81.838C211.078 82.0713 211.549 82.188 212.072 82.188ZM221.871 75.58C222.795 75.58 223.528 75.8507 224.069 76.392C224.62 76.924 224.895 77.7033 224.895 78.73V83H223.901V78.828C223.901 78.0627 223.71 77.4793 223.327 77.078C222.944 76.6767 222.398 76.476 221.689 76.476C220.896 76.476 220.266 76.714 219.799 77.19C219.342 77.6567 219.113 78.3053 219.113 79.136V83H218.119V75.636H219.071V76.994C219.342 76.546 219.715 76.2007 220.191 75.958C220.676 75.706 221.236 75.58 221.871 75.58ZM230.45 75.58C231.411 75.58 232.148 75.8227 232.662 76.308C233.175 76.784 233.432 77.4933 233.432 78.436V83H232.48V81.852C232.256 82.2347 231.924 82.5333 231.486 82.748C231.056 82.9627 230.543 83.07 229.946 83.07C229.124 83.07 228.471 82.874 227.986 82.482C227.5 82.09 227.258 81.572 227.258 80.928C227.258 80.3027 227.482 79.7987 227.93 79.416C228.387 79.0333 229.11 78.842 230.1 78.842H232.438V78.394C232.438 77.7593 232.26 77.2787 231.906 76.952C231.551 76.616 231.033 76.448 230.352 76.448C229.885 76.448 229.437 76.5273 229.008 76.686C228.578 76.8353 228.21 77.0453 227.902 77.316L227.454 76.574C227.827 76.2567 228.275 76.014 228.798 75.846C229.32 75.6687 229.871 75.58 230.45 75.58ZM230.1 82.286C230.66 82.286 231.14 82.16 231.542 81.908C231.943 81.6467 232.242 81.2733 232.438 80.788V79.584H230.128C228.868 79.584 228.238 80.0227 228.238 80.9C228.238 81.3293 228.401 81.67 228.728 81.922C229.054 82.1647 229.512 82.286 230.1 82.286ZM245.596 75.58C246.52 75.58 247.243 75.846 247.766 76.378C248.298 76.91 248.564 77.694 248.564 78.73V83H247.57V78.828C247.57 78.0627 247.383 77.4793 247.01 77.078C246.646 76.6767 246.128 76.476 245.456 76.476C244.69 76.476 244.088 76.714 243.65 77.19C243.211 77.6567 242.992 78.3053 242.992 79.136V83H241.998V78.828C241.998 78.0627 241.811 77.4793 241.438 77.078C241.074 76.6767 240.551 76.476 239.87 76.476C239.114 76.476 238.512 76.714 238.064 77.19C237.625 77.6567 237.406 78.3053 237.406 79.136V83H236.412V75.636H237.364V76.98C237.625 76.532 237.989 76.1867 238.456 75.944C238.922 75.7013 239.459 75.58 240.066 75.58C240.682 75.58 241.214 75.7107 241.662 75.972C242.119 76.2333 242.46 76.6207 242.684 77.134C242.954 76.6487 243.342 76.2707 243.846 76C244.359 75.72 244.942 75.58 245.596 75.58ZM251.539 75.636H252.533V83H251.539V75.636ZM252.043 74.026C251.838 74.026 251.665 73.956 251.525 73.816C251.385 73.676 251.315 73.508 251.315 73.312C251.315 73.1253 251.385 72.962 251.525 72.822C251.665 72.682 251.838 72.612 252.043 72.612C252.249 72.612 252.421 72.682 252.561 72.822C252.701 72.9527 252.771 73.1113 252.771 73.298C252.771 73.5033 252.701 73.676 252.561 73.816C252.421 73.956 252.249 74.026 252.043 74.026ZM260.773 82.174V83H254.781V82.342L259.415 76.476H254.865V75.636H260.689V76.294L256.055 82.174H260.773Z" fill="white"/>
<path d="M46.6089 0.0130768C45.062 0.14724 43.5309 0.320862 42.426 0.486588C20.6829 3.81695 3.64351 20.9501 0.44715 42.7001C0.107783 45.0045 0.0288608 46.0462 0.00518406 48.7373C-0.00270819 50.1894 -0.00270819 51.2232 0.0130763 51.0259C0.0288608 50.8286 0.0841066 50.2052 0.13146 49.6449C0.431366 46.0541 1.15745 42.5422 2.3334 39.0303C4.20386 33.4114 6.95826 28.4947 10.8255 23.8385C11.9225 22.5206 15.0084 19.427 16.3816 18.2748C21.5826 13.9027 27.6675 10.6986 34.0602 8.96243C45.3225 5.90828 57.3187 7.16309 67.5944 12.4822C73.6399 15.6152 78.975 20.0899 83.15 25.5274C91.4921 36.3945 94.5622 50.4498 91.5395 63.9291C89.9374 71.1028 86.5674 77.8661 81.7294 83.6192C80.5772 84.9924 77.4834 88.0781 76.1654 89.1751C71.509 93.0421 66.5921 95.7964 60.9728 97.6667C57.4608 98.8426 53.9487 99.5687 50.3577 99.8685C49.7974 99.9159 49.1739 99.9711 48.9766 99.9869C48.7793 100.003 49.8132 100.003 51.2653 99.9948C53.9566 99.9711 54.9984 99.8922 57.3029 99.5529C69.4886 97.7614 80.5377 91.5663 88.4694 82.0724C94.3334 75.0566 98.1295 66.636 99.5186 57.5762C99.9447 54.7667 100 53.938 100 50C100 46.062 99.9447 45.2333 99.5186 42.4238C96.188 20.6818 79.054 3.64333 57.3029 0.447128C54.7774 0.07621 54.0355 0.028862 50.4367 0.00518799C48.5267 -0.00270844 46.8062 -0.00270844 46.6089 0.0130768Z" fill="white"/>
<path d="M42.8994 7.54994C27.9357 8.5443 14.5583 17.4067 7.7789 30.8305C4.0143 38.2882 2.53055 46.5666 3.48552 54.8529C5.06397 68.6792 13.3587 80.8956 25.6549 87.501C37.8326 94.0353 52.5753 94.2168 64.9188 87.9824C74.3343 83.2237 81.6898 75.0873 85.4702 65.2463C87.317 60.4245 88.3035 55.137 88.272 50.1731L88.2641 48.6974L88.1536 49.9601C87.4433 58.3016 84.3969 65.7514 79.0617 72.1753C78.0673 73.3748 75.9443 75.5213 74.6657 76.6341C68.3204 82.1267 60.6017 85.3781 52.1728 86.112C50.326 86.2699 46.3089 86.2304 44.6357 86.0331C39.7978 85.4649 35.7411 84.2812 31.4951 82.1977C19.7357 76.4447 11.5593 65.0648 9.83878 52.0908C9.57044 50.0469 9.49152 48.4843 9.53887 46.0615C9.59412 43.11 9.83878 41.0266 10.4307 38.2803C11.4725 33.5137 13.7375 28.3604 16.5788 24.3198C17.3443 23.2387 17.6126 22.8836 17.5022 23.1282C17.3443 23.4518 16.997 24.5724 16.8076 25.3379C16.0342 28.5025 15.8053 32.6298 16.2631 35.0842C16.4683 36.1495 17.1549 38.8801 17.5732 40.2769C19.5699 46.9139 22.9715 52.3749 27.6674 56.5023C28.8986 57.5835 29.3405 57.9307 33.4129 61.0006C37.1618 63.8179 38.606 64.9464 39.782 65.9724C44.7383 70.2812 47.0823 73.9825 48.1004 79.0805L48.3214 80.1854L48.5266 79.5146C49.3395 76.8866 49.7815 72.7592 49.6078 69.4763C49.5605 68.6161 49.4737 67.4797 49.4105 66.9509C48.5582 60.0141 45.6222 53.5034 40.729 47.7504C40.2871 47.2295 39.0401 45.88 37.9668 44.7515C32.8763 39.4167 29.5063 35.6287 27.7463 33.2691C27.3675 32.7561 27.036 32.2905 27.0123 32.2274C26.9255 32.0301 26.4835 32.6535 26.302 33.2296C25.7259 35.0526 26.5388 38.446 28.2909 41.5238C28.7328 42.3051 29.2537 43.0706 30.6506 45.0041C31.0453 45.5486 31.14 45.738 31.1242 45.9274C31.1005 46.1641 31.0847 46.172 30.6901 46.1957C29.0722 46.2904 25.6075 43.26 23.2083 39.6614C22.0007 37.8384 20.7617 35.4472 20.1776 33.7899C19.5778 32.0932 19.3805 30.0808 19.5305 27.3108C19.7041 24.2409 19.7278 23.0887 19.6252 22.5916C19.5147 22.0786 19.2384 21.6998 18.907 21.613L18.6781 21.5499L19.5699 20.5634C24.8104 14.763 31.4714 10.6987 38.9138 8.76527C41.2263 8.16549 43.2782 7.81826 45.859 7.58939L47.0429 7.4868H45.4644C44.5963 7.4868 43.444 7.51837 42.8994 7.54994Z" fill="white"/>
<path d="M46.7031 20.0115C44.4144 20.6113 42.7491 22.7974 42.7412 25.2044C42.7412 25.4333 42.7965 25.891 42.8675 26.2225C43.3805 28.7242 45.5666 30.5078 48.1079 30.5078C50.523 30.5078 52.6617 28.8426 53.2773 26.4829C53.4589 25.7963 53.4668 24.5494 53.2852 23.8786C52.788 21.9608 51.2333 20.414 49.3707 19.9799C48.6525 19.8063 47.4213 19.8221 46.7031 20.0115Z" fill="white"/>
<path d="M77.3094 21.8039C76.8122 22.2616 76.7491 23.0508 76.9622 26.2942C77.2226 30.2716 76.9859 32.4102 76.0309 34.6514C74.7997 37.5397 73.237 40.0808 71.3429 42.2668C69.1015 44.8473 66.5444 46.5598 65.5184 46.1652C65.4474 46.1337 65.3921 46.0232 65.3921 45.8969C65.3921 45.676 65.5894 45.3761 66.8127 43.7346C68.3675 41.6355 69.4961 39.3311 70.1117 36.9794C70.3643 36.0088 70.3879 35.8115 70.3958 34.7698C70.4037 33.5071 70.2774 32.9942 69.8355 32.4181L69.6224 32.134L69.4645 32.3628C67.5152 35.0854 64.3583 38.684 58.7232 44.5948C56.0319 47.4121 55.0296 48.5959 53.6011 50.5766C52.2515 52.4627 50.8862 54.8381 49.9707 56.882C49.071 58.8865 49.1104 58.5156 49.6708 60.1965C50.7994 63.5741 51.4228 67.1963 51.4228 70.3767C51.4228 71.0632 51.4465 71.6235 51.486 71.6156C51.5176 71.6156 51.8332 71.2132 52.1884 70.7318C53.3801 69.1219 55.0217 67.441 57.2631 65.5549C58.5259 64.4816 60.1596 63.219 64.011 60.3228C67.8782 57.4108 68.5096 56.8978 70.0407 55.4063C74.0736 51.4684 76.8675 46.836 78.7616 40.9252C79.2904 39.2996 80.1743 35.7957 80.3559 34.6119C80.5216 33.586 80.5453 30.674 80.3953 29.2851C80.0165 25.7023 79.1404 22.6799 78.2407 21.867C77.8777 21.5356 77.6251 21.5198 77.3094 21.8039Z" fill="white"/>
<path d="M67.1285 26.7826C66.355 27.99 64.2005 29.4421 61.6907 30.468C59.7966 31.2335 57.9656 31.7386 55.1717 32.2515C52.1332 32.804 50.0891 33.3801 48.7316 34.0666L48.1082 34.3744L47.3742 34.0272C45.922 33.3248 43.9884 32.7803 41.2024 32.2831C37.6351 31.6439 35.2675 30.9179 32.8919 29.7262C31.1872 28.8739 29.7034 27.7296 29.0326 26.7589L28.7563 26.3644L28.7958 26.9168C28.9615 29.016 30.5242 31.8806 32.8209 34.2639C34.352 35.858 35.7173 36.9629 38.2034 38.6122C39.9712 39.7881 40.5947 40.2853 41.6365 41.3664C44.2331 44.0575 46.214 47.8692 47.3584 52.3674C47.6583 53.5512 48.0292 55.4767 48.0292 55.8555C48.0292 56.3132 48.1082 56.0291 48.3055 54.8296C49.1736 49.6842 51.3361 44.8861 54.1931 41.7452C55.3454 40.4747 56.1346 39.8354 58.3286 38.3834C62.1564 35.8423 64.7371 33.2301 66.2524 30.3497C66.9391 29.0317 67.5152 27.1851 67.4284 26.5459C67.4047 26.3722 67.3731 26.3959 67.1285 26.7826Z" fill="white"/>
</svg>

